<svg width="18" height="18" viewBox="0 0 24 24" fill="none" xmlns="http://www.w3.org/2000/svg">
<path d="M12 24C9.62663 24 7.30655 23.2962 5.33316 21.9776C3.35977 20.6591 1.8217 18.7849 0.913449 16.5922C0.00519714 14.3995 -0.232443 11.9867 0.23058 9.65892C0.693602 7.33115 1.83649 5.19295 3.51472 3.51472C5.19295 1.83649 7.33115 0.693604 9.65892 0.230582C11.9867 -0.232441 14.3995 0.00519762 16.5922 0.913449C18.7849 1.8217 20.6591 3.35977 21.9776 5.33316C23.2962 7.30655 24 9.62663 24 12C24 18.6276 18.5663 24 12 24ZM8.93878 6.06123L8.93878 17.9388L17.8469 12.0459L8.93878 6.06123Z" fill="#D9D1C7"/>
</svg>
